<svg width="44" height="45" viewBox="0 0 44 45" fill="none" xmlns="http://www.w3.org/2000/svg">
<rect y="0.5" width="44" height="44" rx="8" fill="#D9FBFF"/>
<path d="M18 16.25C17.59 16.25 17.25 15.91 17.25 15.5V12.5C17.25 12.09 17.59 11.75 18 11.75C18.41 11.75 18.75 12.09 18.75 12.5V15.5C18.75 15.91 18.41 16.25 18 16.25Z" fill="#00808F"/>
<path d="M26 16.25C25.59 16.25 25.25 15.91 25.25 15.5V12.5C25.25 12.09 25.59 11.75 26 11.75C26.41 11.75 26.75 12.09 26.75 12.5V15.5C26.75 15.91 26.41 16.25 26 16.25Z" fill="#00808F"/>
<path d="M25 33.25H19C13.38 33.25 12.25 30.6 12.25 26.32V20.15C12.25 15.41 13.85 13.48 17.96 13.25H26C26.01 13.25 26.03 13.25 26.04 13.25C30.15 13.48 31.75 15.41 31.75 20.15V26.32C31.75 30.6 30.62 33.25 25 33.25ZM18 14.75C15.2 14.91 13.75 15.79 13.75 20.15V26.32C13.75 30.15 14.48 31.75 19 31.75H25C29.52 31.75 30.25 30.15 30.25 26.32V20.15C30.25 15.8 28.81 14.91 25.98 14.75H18Z" fill="#00808F"/>
<path d="M30.75 28.85H13.25C12.84 28.85 12.5 28.51 12.5 28.1C12.5 27.69 12.84 27.35 13.25 27.35H30.75C31.16 27.35 31.5 27.69 31.5 28.1C31.5 28.51 31.16 28.85 30.75 28.85Z" fill="#00808F"/>
<path d="M22 18.75C20.77 18.75 19.73 19.42 19.73 20.72C19.73 21.34 20.02 21.81 20.46 22.11C19.85 22.47 19.5 23.05 19.5 23.73C19.5 24.97 20.45 25.74 22 25.74C23.54 25.74 24.5 24.97 24.5 23.73C24.5 23.05 24.15 22.46 23.53 22.11C23.98 21.8 24.26 21.34 24.26 20.72C24.26 19.42 23.23 18.75 22 18.75ZM22 21.59C21.48 21.59 21.1 21.28 21.1 20.79C21.1 20.29 21.48 20 22 20C22.52 20 22.9 20.29 22.9 20.79C22.9 21.28 22.52 21.59 22 21.59ZM22 24.5C21.34 24.5 20.86 24.17 20.86 23.57C20.86 22.97 21.34 22.65 22 22.65C22.66 22.65 23.14 22.98 23.14 23.57C23.14 24.17 22.66 24.5 22 24.5Z" fill="#00808F"/>
</svg>
