<svg width="28" height="29" viewBox="0 0 28 29" fill="none" xmlns="http://www.w3.org/2000/svg">
<path d="M19.5992 20.3837C19.5074 20.3848 19.4164 20.3667 19.332 20.3306C19.2476 20.2944 19.1717 20.241 19.1092 20.1737L7.90922 8.97373C7.62922 8.69373 7.62922 8.25973 7.90922 7.97973C8.18922 7.69973 8.62322 7.69973 8.90322 7.97973L20.0892 19.1937C20.3692 19.4737 20.3692 19.9077 20.0892 20.1877C19.9492 20.3277 19.7672 20.3977 19.5992 20.3977V20.3837Z" fill="#362E40"/>
<path d="M8.39922 20.3838C8.30741 20.3849 8.21639 20.3668 8.132 20.3306C8.04761 20.2944 7.97172 20.241 7.90922 20.1738C7.62922 19.8938 7.62922 19.4598 7.90922 19.1798L19.1092 7.99375C19.3892 7.71375 19.8232 7.71375 20.1032 7.99375C20.3832 8.27375 20.3832 8.70775 20.1032 8.98775L8.88922 20.1738C8.74922 20.3138 8.56722 20.3838 8.39922 20.3838Z" fill="#362E40"/>
</svg>
