<svg width="44" height="45" viewBox="0 0 44 45" fill="none" xmlns="http://www.w3.org/2000/svg">
<path d="M22 32.8337C16.07 32.8337 11.25 28.0137 11.25 22.0837C11.25 16.1537 16.07 11.3337 22 11.3337C27.93 11.3337 32.75 16.1537 32.75 22.0837C32.75 28.0137 27.93 32.8337 22 32.8337ZM22 12.8337C16.9 12.8337 12.75 16.9837 12.75 22.0837C12.75 27.1837 16.9 31.3337 22 31.3337C27.1 31.3337 31.25 27.1837 31.25 22.0837C31.25 16.9837 27.1 12.8337 22 12.8337Z" fill="#293A37"/>
<path d="M25.7106 26.0137C25.5806 26.0137 25.4506 25.9837 25.3306 25.9037L22.2306 24.0537C21.4606 23.5937 20.8906 22.5837 20.8906 21.6937V17.5937C20.8906 17.1837 21.2306 16.8437 21.6406 16.8437C22.0506 16.8437 22.3906 17.1837 22.3906 17.5937V21.6937C22.3906 22.0537 22.6906 22.5837 23.0006 22.7637L26.1006 24.6137C26.4606 24.8237 26.5706 25.2837 26.3606 25.6437C26.2106 25.8837 25.9606 26.0137 25.7106 26.0137Z" fill="#293A37"/>
</svg>
