<svg width="44" height="44" viewBox="0 0 44 44" fill="none" xmlns="http://www.w3.org/2000/svg">
<rect width="44" height="44" rx="8" fill="#EEE0FF"/>
<path d="M22 12C22.3753 12 22.7453 12.0203 23.11 12.061C23.2405 12.0754 23.3669 12.1155 23.482 12.1788C23.5971 12.2421 23.6986 12.3274 23.7806 12.4299C23.8627 12.5324 23.9238 12.6501 23.9604 12.7762C23.997 12.9024 24.0084 13.0345 23.994 13.165C23.9796 13.2955 23.9395 13.4219 23.8762 13.537C23.8129 13.6521 23.7276 13.7536 23.6251 13.8356C23.5226 13.9177 23.4049 13.9788 23.2788 14.0154C23.1526 14.052 23.0205 14.0634 22.89 14.049C21.242 13.8646 19.5775 14.1969 18.1267 14.9999C16.6758 15.8029 15.5104 17.0369 14.7915 18.5312C14.0726 20.0255 13.8358 21.7063 14.1139 23.341C14.392 24.9758 15.1712 26.4837 16.3437 27.6563C17.5163 28.8288 19.0242 29.608 20.659 29.8861C22.2937 30.1642 23.9745 29.9274 25.4688 29.2085C26.9631 28.4896 28.1971 27.3242 29.0001 25.8733C29.8031 24.4225 30.1354 22.758 29.951 21.11C29.9366 20.9795 29.948 20.8474 29.9846 20.7212C30.0212 20.5951 30.0823 20.4774 30.1644 20.3749C30.3301 20.1679 30.5714 20.0352 30.835 20.006C31.0986 19.9768 31.363 20.0536 31.5701 20.2194C31.6726 20.3014 31.7579 20.4029 31.8212 20.518C31.8845 20.6331 31.9246 20.7595 31.939 20.89C31.979 21.2547 31.9993 21.6247 32 22C32 27.523 27.523 32 22 32C16.477 32 12 27.523 12 22C12 16.477 16.477 12 22 12ZM21.968 17.877C22.0339 18.1337 21.9952 18.4061 21.8604 18.6343C21.7256 18.8625 21.5057 19.0278 21.249 19.094C20.5439 19.2787 19.93 19.7137 19.522 20.3177C19.114 20.9217 18.9398 21.6536 19.0317 22.3767C19.1236 23.0998 19.4755 23.7647 20.0217 24.2474C20.5679 24.7301 21.2711 24.9976 22 25C22.6653 25.0003 23.3118 24.7794 23.8379 24.3721C24.3639 23.9648 24.7397 23.3942 24.906 22.75C24.9769 22.4984 25.1435 22.2845 25.3701 22.1542C25.5968 22.0239 25.8655 21.9875 26.1186 22.0529C26.3717 22.1183 26.5892 22.2802 26.7244 22.5039C26.8596 22.7277 26.9018 22.9955 26.842 23.25C26.5352 24.4259 25.8108 25.45 24.8042 26.1308C23.7975 26.8116 22.5774 27.1026 21.3718 26.9495C20.1662 26.7964 19.0575 26.2096 18.253 25.2987C17.4485 24.3879 17.0031 23.2153 17 22C16.9998 20.8914 17.3681 19.8142 18.0469 18.9377C18.7257 18.0612 19.6766 17.4352 20.75 17.158C20.8772 17.1252 21.0096 17.1178 21.1396 17.1362C21.2697 17.1546 21.3948 17.1984 21.5079 17.2652C21.621 17.332 21.7199 17.4204 21.7988 17.5253C21.8778 17.6303 21.9353 17.7498 21.968 17.877ZM28.504 12.127C28.6865 12.2027 28.8425 12.3307 28.9524 12.495C29.0622 12.6593 29.1209 12.8524 29.121 13.05V14.88H30.95C31.1478 14.88 31.341 14.9387 31.5055 15.0486C31.6699 15.1585 31.798 15.3146 31.8737 15.4973C31.9493 15.68 31.9692 15.8811 31.9306 16.075C31.892 16.269 31.7968 16.4471 31.657 16.587L28.12 20.12C27.9325 20.3075 27.6782 20.4129 27.413 20.413H25L23.172 22.242C22.9844 22.4296 22.7299 22.5351 22.4645 22.5351C22.1991 22.5351 21.9446 22.4296 21.757 22.242C21.5694 22.0544 21.4639 21.7999 21.4639 21.5345C21.4639 21.2691 21.5694 21.0146 21.757 20.827L23.586 19V16.586C23.5861 16.3208 23.6915 16.0665 23.879 15.879L27.414 12.343C27.5538 12.2031 27.7321 12.1078 27.9261 12.0691C28.1201 12.0305 28.3212 12.0503 28.504 12.126M27.121 15.463L25.586 17V18.414H27L28.536 16.879H28.121C27.8558 16.879 27.6014 16.7736 27.4139 16.5861C27.2264 16.3986 27.121 16.1442 27.121 15.879V15.463Z" fill="#9747FF"/>
</svg>
