<svg width="24" height="25" viewBox="0 0 24 25" fill="none" xmlns="http://www.w3.org/2000/svg">
<path d="M15 22.8337H9C3.57 22.8337 1.25 20.5137 1.25 15.0837V9.08374C1.25 3.65374 3.57 1.33374 9 1.33374H15C20.43 1.33374 22.75 3.65374 22.75 9.08374V15.0837C22.75 20.5137 20.43 22.8337 15 22.8337ZM9 2.83374C4.39 2.83374 2.75 4.47374 2.75 9.08374V15.0837C2.75 19.6937 4.39 21.3337 9 21.3337H15C19.61 21.3337 21.25 19.6937 21.25 15.0837V9.08374C21.25 4.47374 19.61 2.83374 15 2.83374H9Z" fill="#292D32"/>
<path d="M10.6395 9.58374C10.4495 9.58374 10.2595 9.51374 10.1095 9.36374C9.39945 8.65374 8.23945 8.65374 7.52945 9.36374C7.23945 9.65374 6.75945 9.65374 6.46945 9.36374C6.17945 9.07374 6.17945 8.59374 6.46945 8.30374C7.75945 7.01374 9.86945 7.01374 11.1695 8.30374C11.4595 8.59374 11.4595 9.07374 11.1695 9.36374C11.0195 9.51374 10.8295 9.58374 10.6395 9.58374Z" fill="#292D32"/>
<path d="M13.3608 9.58374C13.1708 9.58374 12.9808 9.51374 12.8308 9.36374C12.5408 9.07374 12.5408 8.59374 12.8308 8.30374C14.1208 7.01374 16.2308 7.01374 17.5308 8.30374C17.8208 8.59374 17.8208 9.07374 17.5308 9.36374C17.2408 9.65374 16.7608 9.65374 16.4708 9.36374C15.7608 8.65374 14.6008 8.65374 13.8908 9.36374C13.7508 9.51374 13.5608 9.58374 13.3608 9.58374Z" fill="#292D32"/>
<path d="M15.6 18.5337H8.4C7.49 18.5337 6.75 17.7937 6.75 16.8837C6.75 13.9937 9.1 11.6337 12 11.6337C14.9 11.6337 17.25 13.9937 17.25 16.8837C17.25 17.7937 16.51 18.5337 15.6 18.5337ZM12 13.1337C9.93 13.1337 8.25 14.8137 8.25 16.8837C8.25 16.9637 8.32 17.0337 8.4 17.0337H15.6C15.68 17.0337 15.75 16.9637 15.75 16.8837C15.75 14.8137 14.07 13.1337 12 13.1337Z" fill="#292D32"/>
</svg>
