<svg width="44" height="44" viewBox="0 0 44 44" fill="none" xmlns="http://www.w3.org/2000/svg">
<rect width="44" height="44" rx="8" fill="#FFEED4"/>
<path d="M22 29.75C18.28 29.75 15.25 26.72 15.25 23V18C15.25 14.28 18.28 11.25 22 11.25C25.72 11.25 28.75 14.28 28.75 18V23C28.75 26.72 25.72 29.75 22 29.75ZM22 12.75C19.11 12.75 16.75 15.1 16.75 18V23C16.75 25.9 19.11 28.25 22 28.25C24.89 28.25 27.25 25.9 27.25 23V18C27.25 15.1 24.89 12.75 22 12.75Z" fill="#DB8500"/>
<path d="M22 32.75C16.62 32.75 12.25 28.38 12.25 23V21C12.25 20.59 12.59 20.25 13 20.25C13.41 20.25 13.75 20.59 13.75 21V23C13.75 27.55 17.45 31.25 22 31.25C26.55 31.25 30.25 27.55 30.25 23V21C30.25 20.59 30.59 20.25 31 20.25C31.41 20.25 31.75 20.59 31.75 21V23C31.75 28.38 27.38 32.75 22 32.75Z" fill="#DB8500"/>
<path d="M24.6099 18.23C24.5299 18.23 24.4399 18.22 24.3499 18.19C22.7399 17.61 20.9699 17.61 19.3599 18.19C18.9799 18.33 18.5499 18.13 18.4099 17.74C18.2699 17.35 18.4699 16.92 18.8599 16.78C20.7999 16.08 22.9299 16.08 24.8699 16.78C25.2599 16.92 25.4599 17.35 25.3199 17.74C25.2099 18.05 24.9199 18.23 24.6099 18.23Z" fill="#DB8500"/>
<path d="M23.6999 21.23C23.6399 21.23 23.5699 21.22 23.4999 21.2C22.4299 20.91 21.2999 20.91 20.2299 21.2C19.8199 21.31 19.4199 21.07 19.3099 20.67C19.1999 20.27 19.4399 19.86 19.8399 19.75C21.1699 19.39 22.5699 19.39 23.8999 19.75C24.2999 19.86 24.5399 20.27 24.4299 20.67C24.3299 21.02 24.0299 21.23 23.6999 21.23Z" fill="#DB8500"/>
</svg>
